<svg width="147" height="45" viewBox="0 0 147 45" fill="none" xmlns="http://www.w3.org/2000/svg">
<path d="M145.902 39.1299C145.902 41.487 144.035 43.3963 141.724 43.3963H4.99854C2.68943 43.3963 0.815125 41.487 0.815125 39.1299V5.10648C0.815125 2.75047 2.68943 0.834473 4.99854 0.834473H141.723C144.035 0.834473 145.901 2.75047 145.901 5.10648L145.902 39.1299Z" fill="black"/>
<path d="M141.283 0.885999C143.799 0.885999 145.847 2.969 145.847 5.52886V38.7021C145.847 41.2619 143.799 43.3449 141.283 43.3449H5.43397C2.91804 43.3449 0.870792 41.2619 0.870792 38.7021V5.52886C0.870792 2.969 2.91804 0.885999 5.43397 0.885999H141.283ZM141.283 0H5.43397C2.44664 0 0 2.48937 0 5.52886V38.7021C0 41.7416 2.44664 44.2309 5.43397 44.2309H141.283C144.27 44.2309 146.717 41.7416 146.717 38.7021V5.52886C146.717 2.48937 144.27 0 141.283 0Z" fill="#A6A6A6"/>
<path d="M32.7428 21.8767C32.7113 18.3127 35.6109 16.5789 35.7435 16.4982C34.1014 14.0622 31.5561 13.7293 30.6616 13.7028C28.5239 13.4739 26.4503 15.0043 25.3613 15.0043C24.2507 15.0043 22.5737 13.7249 20.7664 13.7625C18.4407 13.799 16.2649 15.169 15.0716 17.2965C12.6089 21.6345 14.4456 28.0093 16.805 31.5157C17.9853 33.2329 19.3645 35.1504 21.1696 35.0829C22.9357 35.0088 23.5953 33.9373 25.7265 33.9373C27.8382 33.9373 28.4576 35.0829 30.2986 35.0398C32.194 35.0088 33.3873 33.3148 34.5263 31.582C35.8902 29.6138 36.4379 27.6753 36.4597 27.5758C36.4151 27.5603 32.7787 26.1483 32.7428 21.8767Z" fill="white"/>
<path d="M29.2652 11.396C30.2151 10.1874 30.865 8.54312 30.6846 6.87451C29.3097 6.93644 27.5905 7.84206 26.6004 9.02414C25.7244 10.0657 24.942 11.773 25.1441 13.3786C26.6884 13.4958 28.274 12.5858 29.2652 11.396Z" fill="white"/>
<path d="M53.3073 11.0676C53.3073 12.3691 52.9236 13.3488 52.1574 14.0067C51.4477 14.6138 50.4392 14.9179 49.1329 14.9179C48.4852 14.9179 47.9309 14.8892 47.4668 14.8317V7.72045C48.0722 7.62093 48.7242 7.57007 49.4285 7.57007C50.6729 7.57007 51.6108 7.84541 52.2433 8.39608C52.9518 9.01863 53.3073 9.90875 53.3073 11.0676ZM52.1064 11.0997C52.1064 10.256 51.8868 9.60909 51.4477 9.15796C51.0087 8.70791 50.3675 8.48233 49.523 8.48233C49.1644 8.48233 48.859 8.50666 48.6058 8.55752V13.9636C48.7459 13.9857 49.0025 13.9957 49.3753 13.9957C50.2468 13.9957 50.9196 13.7491 51.3934 13.2559C51.8672 12.7628 52.1064 12.044 52.1064 11.0997Z" fill="white"/>
<path d="M59.6749 12.2042C59.6749 13.0059 59.4499 13.6628 59 14.1781C58.5283 14.7077 57.9034 14.972 57.1231 14.972C56.371 14.972 55.7722 14.7188 55.3256 14.2101C54.88 13.7026 54.6571 13.0623 54.6571 12.2905C54.6571 11.4833 54.8864 10.8209 55.3473 10.3067C55.808 9.79256 56.4276 9.53491 57.2079 9.53491C57.9599 9.53491 58.5642 9.78813 59.0217 10.2957C59.4564 10.7889 59.6749 11.4258 59.6749 12.2042ZM58.4936 12.2418C58.4936 11.7608 58.3914 11.3484 58.1881 11.0045C57.9491 10.5887 57.6089 10.3808 57.1666 10.3808C56.709 10.3808 56.3612 10.5887 56.1221 11.0045C55.9178 11.3484 55.8168 11.7675 55.8168 12.2629C55.8168 12.7439 55.9189 13.1563 56.1221 13.5002C56.3688 13.916 56.7122 14.1239 57.1557 14.1239C57.5904 14.1239 57.9317 13.9127 58.1773 13.4892C58.3881 13.1386 58.4936 12.7229 58.4936 12.2418Z" fill="white"/>
<path d="M68.2125 9.64136L66.6094 14.854H65.5661L64.902 12.5905C64.7336 12.0254 64.5967 11.4637 64.4902 10.9064H64.4695C64.3706 11.4792 64.2337 12.0398 64.0576 12.5905L63.3523 14.854H62.297L60.7896 9.64136H61.9602L62.5394 12.1194C62.6796 12.7055 62.7948 13.2639 62.8872 13.7924H62.9078C62.9926 13.3568 63.1328 12.8017 63.3306 12.1305L64.0576 9.64246H64.9858L65.6824 12.0774C65.8508 12.6712 65.9878 13.2429 66.0932 13.7935H66.1248C66.2018 13.2572 66.3181 12.6856 66.4725 12.0774L67.0941 9.64246H68.2125V9.64136Z" fill="white"/>
<path d="M74.1171 14.8541H72.9782V11.8685C72.9782 10.9485 72.6347 10.4885 71.9457 10.4885C71.6078 10.4885 71.335 10.6145 71.1231 10.8678C70.9133 11.121 70.8068 11.4195 70.8068 11.7612V14.853H69.6678V11.1309C69.6678 10.6731 69.6537 10.1766 69.6265 9.63924H70.6274L70.6807 10.4542H70.7122C70.8448 10.201 71.0426 9.99198 71.3023 9.82501C71.611 9.6304 71.9566 9.53198 72.3348 9.53198C72.813 9.53198 73.2108 9.689 73.527 10.0041C73.9204 10.3901 74.1171 10.9662 74.1171 11.7314V14.8541Z" fill="white"/>
<path d="M77.2581 14.8539H76.1202V7.24951H77.2581V14.8539Z" fill="white"/>
<path d="M83.9635 12.2042C83.9635 13.0059 83.7385 13.6628 83.2886 14.1781C82.8169 14.7077 82.1909 14.972 81.4116 14.972C80.6585 14.972 80.0596 14.7188 79.6141 14.2101C79.1685 13.7026 78.9457 13.0623 78.9457 12.2905C78.9457 11.4833 79.175 10.8209 79.6358 10.3067C80.0966 9.79256 80.7161 9.53491 81.4953 9.53491C82.2485 9.53491 82.8517 9.78813 83.3103 10.2957C83.745 10.7889 83.9635 11.4258 83.9635 12.2042ZM82.781 12.2418C82.781 11.7608 82.6789 11.3484 82.4756 11.0045C82.2376 10.5887 81.8963 10.3808 81.4551 10.3808C80.9965 10.3808 80.6487 10.5887 80.4107 11.0045C80.2064 11.3484 80.1053 11.7675 80.1053 12.2629C80.1053 12.7439 80.2075 13.1563 80.4107 13.5002C80.6574 13.916 81.0009 14.1239 81.4442 14.1239C81.8789 14.1239 82.2192 13.9127 82.4647 13.4892C82.6766 13.1386 82.781 12.7229 82.781 12.2418Z" fill="white"/>
<path d="M89.4755 14.8537H88.4529L88.3682 14.2532H88.3364C87.9868 14.732 87.488 14.972 86.8402 14.972C86.3566 14.972 85.9654 14.8139 85.6708 14.4998C85.4035 14.2145 85.2698 13.8596 85.2698 13.4383C85.2698 12.8014 85.5306 12.3159 86.0555 11.9798C86.5794 11.6436 87.3162 11.4789 88.265 11.4866V11.3893C88.265 10.7026 87.9107 10.3598 87.201 10.3598C86.6956 10.3598 86.2501 10.4892 85.8653 10.7457L85.6339 9.98496C86.1099 9.6853 86.6979 9.53491 87.3912 9.53491C88.7302 9.53491 89.4022 10.2537 89.4022 11.6912V13.6108C89.4022 14.1316 89.4269 14.5463 89.4755 14.8537ZM88.2933 13.0623V12.2584C87.0369 12.2363 86.4088 12.5868 86.4088 13.3089C86.4088 13.5809 86.4805 13.7844 86.6272 13.9204C86.7739 14.0564 86.9608 14.1239 87.1836 14.1239C87.4336 14.1239 87.6672 14.0432 87.8803 13.8828C88.0944 13.7214 88.2258 13.5168 88.2748 13.2658C88.2868 13.2094 88.2933 13.1408 88.2933 13.0623Z" fill="white"/>
<path d="M95.948 14.8539H94.9369L94.884 14.0169H94.8522C94.529 14.6538 93.9797 14.9722 93.2071 14.9722C92.589 14.9722 92.0751 14.7257 91.668 14.2325C91.26 13.7393 91.0569 13.0991 91.0569 12.3129C91.0569 11.4692 91.2777 10.7858 91.721 10.2639C92.1501 9.77732 92.6764 9.53405 93.3025 9.53405C93.9903 9.53405 94.4716 9.76958 94.7453 10.2417H94.7674V7.24951H95.9074V13.4496C95.9074 13.9571 95.9206 14.4249 95.948 14.8539ZM94.7674 12.6556V11.7865C94.7674 11.6361 94.7568 11.5145 94.7356 11.4216C94.672 11.143 94.5334 10.9085 94.3241 10.7194C94.1122 10.5304 93.857 10.4353 93.5621 10.4353C93.1373 10.4353 92.8044 10.6066 92.5598 10.9505C92.3179 11.2944 92.1952 11.7334 92.1952 12.2697C92.1952 12.785 92.3108 13.203 92.5448 13.5248C92.7912 13.8676 93.1241 14.039 93.54 14.039C93.9144 14.039 94.2129 13.8963 94.4398 13.6099C94.6597 13.3457 94.7674 13.0272 94.7674 12.6556Z" fill="white"/>
<path d="M105.689 12.2042C105.689 13.0059 105.463 13.6628 105.014 14.1781C104.542 14.7077 103.918 14.972 103.137 14.972C102.386 14.972 101.787 14.7188 101.339 14.2101C100.894 13.7026 100.671 13.0623 100.671 12.2905C100.671 11.4833 100.9 10.8209 101.361 10.3067C101.822 9.79256 102.441 9.53491 103.222 9.53491C103.974 9.53491 104.579 9.78813 105.035 10.2957C105.47 10.7889 105.689 11.4258 105.689 12.2042ZM104.508 12.2418C104.508 11.7608 104.406 11.3484 104.203 11.0045C103.963 10.5887 103.624 10.3808 103.18 10.3808C102.723 10.3808 102.376 10.5887 102.136 11.0045C101.931 11.3484 101.831 11.7675 101.831 12.2629C101.831 12.7439 101.932 13.1563 102.136 13.5002C102.383 13.916 102.726 14.1239 103.169 14.1239C103.604 14.1239 103.946 13.9127 104.192 13.4892C104.402 13.1386 104.508 12.7229 104.508 12.2418Z" fill="white"/>
<path d="M111.812 14.8541H110.675V11.8685C110.675 10.9485 110.332 10.4885 109.641 10.4885C109.303 10.4885 109.031 10.6145 108.82 10.8678C108.609 11.121 108.504 11.4195 108.504 11.7612V14.853H107.364V11.1309C107.364 10.6731 107.35 10.1766 107.323 9.63924H108.323L108.377 10.4542H108.407C108.542 10.201 108.739 9.99198 108.998 9.82501C109.307 9.6304 109.652 9.53198 110.031 9.53198C110.508 9.53198 110.906 9.689 111.222 10.0041C111.617 10.3901 111.812 10.9662 111.812 11.7314V14.8541Z" fill="white"/>
<path d="M119.478 10.5092H118.224V13.0414C118.224 13.685 118.446 14.0068 118.888 14.0068C119.092 14.0068 119.261 13.9891 119.395 13.9526L119.425 14.8317C119.2 14.9179 118.904 14.9611 118.54 14.9611C118.09 14.9611 117.74 14.8217 117.487 14.5431C117.232 14.2644 117.106 13.7956 117.106 13.1377V10.5092H116.357V9.6412H117.106V8.68581L118.222 8.34302V9.64009H119.477V10.5092H119.478Z" fill="white"/>
<path d="M125.507 14.8539H124.367V11.8905C124.367 10.9561 124.024 10.4883 123.336 10.4883C122.808 10.4883 122.447 10.7592 122.249 11.3011C122.215 11.415 122.196 11.5543 122.196 11.718V14.8528H121.058V7.24951H122.196V10.391H122.218C122.576 9.81934 123.09 9.53405 123.756 9.53405C124.229 9.53405 124.618 9.69107 124.928 10.0062C125.314 10.3988 125.507 10.9826 125.507 11.7544V14.8539Z" fill="white"/>
<path d="M131.727 12.001C131.727 12.2089 131.712 12.3836 131.685 12.5262H128.269C128.284 13.0415 128.447 13.4341 128.764 13.7061C129.052 13.9493 129.425 14.071 129.882 14.071C130.387 14.071 130.848 13.9892 131.263 13.8244L131.441 14.6294C130.955 14.8439 130.384 14.9512 129.722 14.9512C128.929 14.9512 128.304 14.7134 127.852 14.238C127.398 13.7625 127.172 13.1244 127.172 12.3239C127.172 11.5377 127.382 10.883 127.805 10.3611C128.246 9.8038 128.842 9.52515 129.595 9.52515C130.333 9.52515 130.893 9.8038 131.271 10.3611C131.576 10.8034 131.727 11.3508 131.727 12.001ZM130.64 11.7013C130.649 11.3574 130.574 11.0611 130.419 10.8112C130.222 10.4894 129.92 10.3279 129.513 10.3279C129.142 10.3279 128.839 10.485 128.607 10.8001C128.418 11.0511 128.305 11.3508 128.269 11.7013H130.64Z" fill="white"/>
<path d="M58.3011 34.8358H55.8329L54.481 30.5133H49.7817L48.4938 34.8358H46.0909L50.7468 20.1201H53.6224L58.3011 34.8358ZM54.0734 28.6998L52.8508 24.8573C52.7215 24.4647 52.4791 23.5403 52.1216 22.0851H52.0781C51.9357 22.7109 51.7064 23.6354 51.3913 24.8573L50.1904 28.6998H54.0734Z" fill="white"/>
<path d="M70.2742 29.4002C70.2742 31.2048 69.7949 32.6313 68.8364 33.6784C67.9778 34.6106 66.9116 35.0761 65.639 35.0761C64.2653 35.0761 63.2785 34.5741 62.6775 33.5701H62.634V39.1597H60.317V27.7183C60.317 26.5838 60.2876 25.4194 60.2311 24.2252H62.2688L62.3982 25.907H62.4416C63.2144 24.6398 64.387 24.0073 65.9607 24.0073C67.1909 24.0073 68.218 24.5016 69.0395 25.4913C69.8634 26.482 70.2742 27.7846 70.2742 29.4002ZM67.9137 29.4864C67.9137 28.4536 67.6854 27.6022 67.2268 26.9321C66.7258 26.2332 66.0531 25.8838 65.2097 25.8838C64.6381 25.8838 64.1186 26.0784 63.6545 26.4621C63.1894 26.8492 62.8851 27.3545 62.7427 27.9804C62.6709 28.2723 62.6351 28.5111 62.6351 28.6991V30.4684C62.6351 31.2402 62.8677 31.8915 63.3329 32.4234C63.7979 32.9552 64.4022 33.2206 65.1456 33.2206C66.0183 33.2206 66.6975 32.8778 67.1834 32.1945C67.6703 31.51 67.9137 30.6077 67.9137 29.4864Z" fill="white"/>
<path d="M82.2694 29.4002C82.2694 31.2048 81.7901 32.6313 80.8305 33.6784C79.973 34.6106 78.9068 35.0761 77.6342 35.0761C76.2605 35.0761 75.2737 34.5741 74.6738 33.5701H74.6303V39.1597H72.3132V27.7183C72.3132 26.5838 72.2839 25.4194 72.2274 24.2252H74.2652L74.3945 25.907H74.438C75.2096 24.6398 76.3822 24.0073 77.957 24.0073C79.1861 24.0073 80.2132 24.5016 81.037 25.4913C81.8575 26.482 82.2694 27.7846 82.2694 29.4002ZM79.9089 29.4864C79.9089 28.4536 79.6796 27.6022 79.2209 26.9321C78.7199 26.2332 78.0493 25.8838 77.2049 25.8838C76.6322 25.8838 76.1138 26.0784 75.6487 26.4621C75.1835 26.8492 74.8803 27.3545 74.7379 27.9804C74.6673 28.2723 74.6303 28.5111 74.6303 28.6991V30.4684C74.6303 31.2402 74.8629 31.8915 75.3258 32.4234C75.791 32.9541 76.3953 33.2206 77.1408 33.2206C78.0135 33.2206 78.6928 32.8778 79.1785 32.1945C79.6654 31.51 79.9089 30.6077 79.9089 29.4864Z" fill="white"/>
<path d="M95.6805 30.7093C95.6805 31.961 95.2531 32.9795 94.3957 33.7657C93.4535 34.6248 92.1413 35.0539 90.4565 35.0539C88.8998 35.0539 87.6522 34.7487 86.7078 34.1372L87.2446 32.1722C88.2619 32.7981 89.3784 33.1121 90.5943 33.1121C91.4667 33.1121 92.1457 32.9109 92.6341 32.5106C93.1197 32.1103 93.3626 31.5729 93.3626 30.9028C93.3626 30.3057 93.1621 29.8026 92.7612 29.3945C92.3621 28.9865 91.6963 28.6072 90.7656 28.2567C88.2336 27.2958 86.9686 25.8881 86.9686 24.0371C86.9686 22.8273 87.412 21.8355 88.2999 21.0636C89.185 20.2907 90.3647 19.9048 91.8411 19.9048C93.1568 19.9048 94.25 20.1381 95.1224 20.6036L94.5431 22.5255C93.7281 22.0743 92.8071 21.8487 91.7758 21.8487C90.9607 21.8487 90.3232 22.0533 89.8667 22.4602C89.4817 22.824 89.2874 23.2674 89.2874 23.7927C89.2874 24.3743 89.5082 24.8553 89.9514 25.2335C90.3373 25.5829 91.0384 25.9611 92.0557 26.3691C93.2999 26.8789 94.2147 27.4749 94.8019 28.1583C95.3882 28.8394 95.6805 29.692 95.6805 30.7093Z" fill="white"/>
<path d="M103.341 25.9944H100.787V31.1462C100.787 32.4566 101.237 33.1112 102.139 33.1112C102.553 33.1112 102.897 33.0747 103.168 33.0017L103.232 34.792C102.776 34.9656 102.175 35.0529 101.431 35.0529C100.515 35.0529 99.8006 34.7688 99.2841 34.2015C98.7702 33.6331 98.5114 32.6799 98.5114 31.3409V25.9922H96.99V24.223H98.5114V22.2801L100.787 21.5813V24.223H103.341V25.9944Z" fill="white"/>
<path d="M114.864 29.4432C114.864 31.0742 114.406 32.4133 113.49 33.4605C112.531 34.5386 111.257 35.076 109.669 35.076C108.139 35.076 106.92 34.5596 106.013 33.5268C105.104 32.494 104.649 31.1903 104.649 29.619C104.649 27.9747 105.116 26.6279 106.055 25.5807C106.99 24.5324 108.253 24.0083 109.841 24.0083C111.371 24.0083 112.603 24.5247 113.532 25.5586C114.421 26.5615 114.864 27.8564 114.864 29.4432ZM112.46 29.5195C112.46 28.5409 112.255 27.7016 111.839 27.0016C111.353 26.1546 110.658 25.7322 109.758 25.7322C108.827 25.7322 108.12 26.1557 107.634 27.0016C107.217 27.7027 107.012 28.5552 107.012 29.5637C107.012 30.5423 107.217 31.3816 107.634 32.0804C108.135 32.9275 108.835 33.3499 109.738 33.3499C110.622 33.3499 111.317 32.9186 111.818 32.0583C112.245 31.3451 112.46 30.497 112.46 29.5195Z" fill="white"/>
<path d="M122.396 26.2985C122.167 26.2554 121.922 26.2332 121.665 26.2332C120.85 26.2332 120.22 26.5462 119.776 27.1732C119.39 27.726 119.197 28.4249 119.197 29.2686V34.8362H116.882L116.903 27.5668C116.903 26.3438 116.874 25.2303 116.816 24.2263H118.834L118.919 26.2565H118.983C119.228 25.5587 119.614 24.997 120.142 24.5757C120.658 24.1964 121.216 24.0073 121.817 24.0073C122.031 24.0073 122.224 24.0228 122.396 24.0504V26.2985Z" fill="white"/>
<path d="M132.758 29.0286C132.758 29.451 132.731 29.8071 132.674 30.0979H125.723C125.75 31.1462 126.085 31.9479 126.731 32.5007C127.316 32.995 128.074 33.2427 129.005 33.2427C130.033 33.2427 130.973 33.0757 131.817 32.7407L132.18 34.3772C131.194 34.8151 130.028 35.033 128.684 35.033C127.067 35.033 125.798 34.5486 124.874 33.5811C123.952 32.6135 123.49 31.3143 123.49 29.6842C123.49 28.0842 123.919 26.7518 124.779 25.6891C125.679 24.5546 126.895 23.9873 128.425 23.9873C129.928 23.9873 131.067 24.5546 131.839 25.6891C132.451 26.5904 132.758 27.705 132.758 29.0286ZM130.549 28.417C130.564 27.7182 130.413 27.1144 130.099 26.6047C129.698 25.9489 129.082 25.6216 128.252 25.6216C127.495 25.6216 126.878 25.9413 126.408 26.5826C126.023 27.0924 125.793 27.7038 125.723 28.416H130.549V28.417Z" fill="white"/>
</svg>
