<svg width="160" height="139" viewBox="0 0 160 139" fill="none" xmlns="http://www.w3.org/2000/svg">
<path d="M61.8949 132.125C47.444 131.996 33.0632 127.41 21.2057 119.148C9.34831 110.887 0.664576 98.6422 -4.46216 85.1306C-1.90373 80.5256 0.90718 75.6689 5.5814 73.2405C7.7413 72.1187 10.1917 71.5849 12.2429 70.2752C15.5839 68.1427 17.3818 64.2792 18.5416 60.4887C19.7014 56.699 20.4254 52.7138 22.3906 49.2717C24.2874 45.9497 27.2527 43.3274 30.5412 41.3728C33.7195 39.4836 37.3145 38.1002 39.8007 35.3638C42.277 32.6373 43.3136 28.9351 44.2726 25.3789C45.5016 26.3485 47.2014 25.6465 48.7643 25.7249C57.2982 26.1531 65.8907 25.4123 74.2253 23.5292C78.2615 46.247 76.6491 69.6128 74.2983 92.5664C73.4754 100.606 72.6503 108.658 71.1056 116.59C69.9534 122.508 66.6003 128.358 61.8949 132.125Z" fill="#000035"/>
<path d="M96.9355 132.125C111.386 131.996 125.767 127.41 137.625 119.148C149.482 110.887 158.166 98.6422 163.293 85.1306C160.734 80.5256 157.923 75.6689 153.249 73.2405C151.089 72.1187 148.639 71.5849 146.588 70.2752C143.247 68.1427 141.449 64.2792 140.289 60.4887C139.129 56.699 138.405 52.7138 136.44 49.2717C134.543 45.9497 131.578 43.3274 128.29 41.3728C125.112 39.4836 121.517 38.1002 119.03 35.3638C116.554 32.6373 115.518 28.9351 114.559 25.3789C113.33 26.3485 111.63 25.6465 110.066 25.7249C101.532 26.1531 92.9397 25.4123 84.6051 23.5292C80.5697 46.247 82.182 69.6128 84.5321 92.5664C85.355 100.606 86.1801 108.658 87.7248 116.59C88.877 122.508 92.2301 128.358 96.9355 132.125Z" fill="#000035"/>
<path d="M102.376 95.436C101.85 95.2253 101.331 95.0131 100.828 94.8002C100.698 94.7454 100.579 94.6891 100.451 94.6336C99.6225 94.2762 98.8376 93.9126 98.0862 93.5453C97.887 93.4479 97.6778 93.3521 97.4862 93.254C97.0778 93.0456 96.6876 92.8342 96.3104 92.622C94.387 91.5367 92.8994 90.3944 92.0583 89.1654C91.8324 88.8361 91.6438 88.5015 91.5168 88.1585C88.9028 81.0848 89.9493 73.0886 89.9493 73.0886L81.2915 73.6848L72.0168 73.0886C72.0168 73.0886 73.6793 81.0848 71.0654 88.1585C70.9924 88.3554 70.895 88.5494 70.7893 88.7418C69.955 90.256 68.1183 91.6356 65.6877 92.9391C65.5705 93.0015 65.461 93.0654 65.3416 93.1278C65.0678 93.27 64.7971 93.413 64.5104 93.5537C63.7012 93.9507 62.8334 94.3393 61.9314 94.7241C61.4431 94.9325 60.948 95.1394 60.4392 95.3447C60.0628 95.4968 59.6757 95.6474 59.2893 95.798L81.115 128.537L102.376 95.436Z" fill="#EBA08C"/>
<path d="M127.192 105.841C121.952 101.912 110.855 98.8346 102.376 95.4351L81.1119 128.535L59.2862 95.7963C50.9379 99.0544 40.441 102.051 35.3873 105.841C26.7758 112.3 22.7777 139.672 22.7777 139.672H60.8666H66.5957H81.0579H81.5195H102.898H111.707H139.8C139.8 139.672 135.803 112.3 127.192 105.841Z" fill="#2847FB"/>
<path d="M79.4242 70.8803C99.678 70.8803 116.097 55.0303 116.097 35.4784C116.097 15.9264 99.678 0.0764465 79.4242 0.0764465C59.1704 0.0764465 42.7515 15.9264 42.7515 35.4784C42.7515 55.0303 59.1704 70.8803 79.4242 70.8803Z" fill="#000035"/>
<path d="M111.189 42.7653C111.189 60.0841 100.175 80.7531 79.8303 80.7531C59.4862 80.7531 48.4722 60.0841 48.4722 42.7653C48.4722 25.4465 62.5116 11.4072 79.8303 11.4072C97.1491 11.4072 111.189 25.4473 111.189 42.7653Z" fill="#EBA08C"/>
<path d="M51.9653 43.8216C55.2242 38.3853 57.8275 25.241 56.3581 22.0856C55.9056 21.1136 52.9616 22.3176 52.1281 21.8126C50.6549 20.919 48.7749 21.4833 47.5162 22.7579C46.2576 24.0326 45.5221 25.8867 45.005 27.7516C43.49 33.2182 43.5919 39.1124 44.4513 44.719C44.8612 47.3945 44.776 49.4115 47.3877 48.2174C49.2381 47.3694 50.8245 45.7236 51.9653 43.8216Z" fill="#000035"/>
<path d="M107.449 44.2472C105.86 41.5884 105.04 38.3843 104.557 35.1748C104.023 31.6262 103.913 27.7741 105.381 24.6187C105.834 23.6467 106.452 22.7432 107.286 22.2374C108.759 21.3438 110.639 21.9081 111.897 23.182C113.156 24.4567 113.891 26.3108 114.409 28.1757C115.924 33.6424 115.822 39.5365 114.962 45.1431C114.552 47.8186 114.638 49.8356 112.026 48.6415C110.176 47.7951 108.587 46.1508 107.449 44.2472Z" fill="#000035"/>
<path d="M119.519 48.0374C119.097 50.2741 117.863 52.3435 116.294 53.8935C115.228 54.9461 113.981 55.7925 112.648 56.1515C111.316 56.5105 109.894 56.3477 108.836 55.5347C107.868 54.7909 107.263 53.5612 106.968 52.2454C106.288 49.2079 107.209 45.6805 109.074 43.0392C110.37 41.2041 112.204 39.7058 114.177 39.4579C118.155 38.9567 120.263 44.0804 119.519 48.0374Z" fill="#EBA08C"/>
<path d="M108.321 52.6966C109.274 52.6418 110.22 52.3019 111.024 51.7246C111.268 51.5497 111.522 51.3018 111.511 50.9938C111.504 50.8219 111.414 50.6705 111.322 50.5314C110.779 49.7092 110.103 48.9905 109.331 48.4148C109.895 47.1455 110.468 45.8602 111.308 44.7749C112.149 43.6896 113.303 42.8082 114.593 42.6287C115.885 42.4492 117.292 43.1086 117.785 44.3764C117.785 44.3764 119.517 48.0368 115.436 51.9992C111.134 56.1783 108.321 52.6966 108.321 52.6966Z" fill="#EBA08C"/>
<path d="M117.786 44.3783C117.296 43.474 116.356 42.985 115.442 42.9279C114.526 42.8618 113.644 43.2496 112.918 43.8177C112.186 44.3935 111.599 45.1449 111.106 45.9723C110.618 46.8044 110.195 47.6972 109.775 48.6129L109.622 48.0273C110.124 48.425 110.581 48.876 110.98 49.3696C111.176 49.6198 111.357 49.8799 111.525 50.1476C111.606 50.2838 111.692 50.4039 111.777 50.6009C111.865 50.788 111.893 51.0801 111.799 51.2968C111.613 51.7311 111.277 51.9029 111.017 52.0619C110.742 52.2231 110.446 52.3433 110.15 52.4467C109.553 52.6452 108.93 52.7479 108.32 52.6977C108.917 52.5768 109.483 52.3821 109.994 52.0931C110.249 51.9501 110.485 51.779 110.715 51.6071C110.947 51.4352 111.141 51.2337 111.163 51.0861C111.17 51.0154 111.162 50.9865 111.119 50.9013C111.077 50.8237 110.98 50.7006 110.893 50.5857C110.716 50.3576 110.528 50.1385 110.33 49.9309C109.94 49.5103 109.509 49.1301 109.042 48.8053L108.73 48.5878L108.889 48.2197C109.288 47.2956 109.685 46.342 110.241 45.4483C110.785 44.554 111.487 43.7021 112.392 43.093C113.278 42.4861 114.428 42.102 115.528 42.3484C116.597 42.5705 117.55 43.3713 117.786 44.3783Z" fill="#000035"/>
<path d="M39.2781 48.0374C39.6995 50.2741 40.9338 52.3435 42.5028 53.8935C43.569 54.9461 44.8156 55.7925 46.1488 56.1515C47.4812 56.5105 48.9026 56.3477 49.9613 55.5347C50.9295 54.7909 51.5341 53.5612 51.8292 52.2454C52.5091 49.2079 51.5896 45.6805 49.7232 43.0392C48.4273 41.2041 46.5937 39.7058 44.6201 39.4579C40.6418 38.9567 38.5336 44.0804 39.2781 48.0374Z" fill="#EBA08C"/>
<path d="M50.4755 52.6966C49.5218 52.6418 48.5757 52.3019 47.7718 51.7246C47.5284 51.5497 47.2736 51.3018 47.285 50.9938C47.2919 50.8219 47.3824 50.6705 47.4737 50.5314C48.0159 49.7092 48.692 48.9905 49.464 48.4148C48.9004 47.1455 48.3278 45.8602 47.4874 44.7749C46.6462 43.6896 45.4925 42.8082 44.2019 42.6287C42.9105 42.4492 41.5035 43.1086 41.0107 44.3764C41.0107 44.3764 39.2782 48.0368 43.3592 51.9992C47.663 56.1783 50.4755 52.6966 50.4755 52.6966Z" fill="#EBA08C"/>
<path d="M41.0106 44.3783C41.2456 43.3714 42.1993 42.5698 43.2686 42.3485C44.3676 42.1021 45.5183 42.4854 46.4043 43.093C47.3101 43.7015 48.0121 44.554 48.5559 45.4484C49.1118 46.342 49.5088 47.2957 49.9073 48.2198L50.0663 48.5879L49.7544 48.8054C49.2882 49.1301 48.857 49.5104 48.4669 49.931C48.2684 50.1386 48.0805 50.3576 47.9033 50.5858C47.8166 50.7006 47.72 50.8238 47.6782 50.9014C47.6348 50.9858 47.6265 51.0155 47.6341 51.0862C47.6561 51.2345 47.8493 51.4361 48.082 51.6072C48.3117 51.7791 48.5475 51.9502 48.803 52.0932C49.3133 52.3822 49.8792 52.5761 50.477 52.6978C49.867 52.748 49.2434 52.6453 48.6471 52.4468C48.3505 52.3441 48.0547 52.2232 47.7801 52.062C47.52 51.903 47.1839 51.7312 46.9975 51.2969C46.904 51.0801 46.9321 50.7881 47.0196 50.601C47.1047 50.404 47.1915 50.2839 47.2721 50.1477C47.4401 49.88 47.6219 49.6199 47.8174 49.3697C48.2174 48.8761 48.6737 48.4259 49.1757 48.0274L49.022 48.613C48.603 47.6973 48.1794 46.8037 47.6911 45.9724C47.1975 45.145 46.6119 44.3943 45.8795 43.8178C45.1532 43.2497 44.2718 42.8619 43.3553 42.928C42.4404 42.9851 41.5004 43.4748 41.0106 44.3783Z" fill="#000035"/>
<path d="M71.6114 40.9757C71.6114 42.515 70.3633 43.7623 68.8248 43.7623C67.2855 43.7623 66.0382 42.5143 66.0382 40.9757C66.0382 39.4364 67.2862 38.1891 68.8248 38.1891C70.3633 38.1891 71.6114 39.4364 71.6114 40.9757Z" fill="#000035"/>
<path d="M59.3607 39.2554C59.8824 37.8196 60.719 36.4909 61.7123 35.2741C62.726 34.0724 63.9452 33.0237 65.3088 32.1787C65.6533 31.9749 65.9986 31.768 66.3416 31.5482L67.4162 30.9619C67.7897 30.7983 68.1722 30.65 68.5608 30.523C68.9578 30.4242 69.3624 30.3527 69.7678 30.301C71.3969 30.1679 73.1042 30.4173 74.5204 31.3969L74.4876 31.6897C72.9407 32.3399 71.6349 32.7423 70.342 33.191C70.0226 33.3111 69.7016 33.41 69.3738 33.483C69.0521 33.5788 68.7228 33.6526 68.3859 33.7127L67.3797 33.9424C67.0504 34.042 66.7226 34.1553 66.3941 34.2709C65.1118 34.798 63.8737 35.4885 62.7276 36.3411C61.5609 37.1777 60.5357 38.2211 59.6185 39.3977L59.3607 39.2554Z" fill="#000035"/>
<path d="M90.0184 40.9757C90.0184 42.515 91.2665 43.7623 92.805 43.7623C94.3443 43.7623 95.5916 42.5143 95.5916 40.9757C95.5916 39.4364 94.3436 38.1891 92.805 38.1891C91.2665 38.1891 90.0184 39.4364 90.0184 40.9757Z" fill="#000035"/>
<path d="M102.011 39.3977C101.094 38.2219 100.069 37.1777 98.9022 36.3411C97.7561 35.4885 96.518 34.798 95.2357 34.2709C94.9071 34.1553 94.5794 34.042 94.2501 33.9424L93.2439 33.7127C92.9069 33.6526 92.5776 33.5796 92.2559 33.483C91.9282 33.4093 91.608 33.3104 91.2878 33.191C89.9941 32.7423 88.6891 32.3399 87.1421 31.6897L87.1094 31.3969C88.5255 30.4173 90.2322 30.1679 91.862 30.301C92.2673 30.3527 92.672 30.4242 93.0689 30.523C93.4576 30.65 93.8401 30.7983 94.2136 30.9619L95.2874 31.5482C95.6304 31.768 95.9765 31.9749 96.3202 32.1787C97.6838 33.0244 98.903 34.0724 99.9168 35.2741C100.91 36.4909 101.746 37.8203 102.268 39.2554L102.011 39.3977Z" fill="#000035"/>
<path d="M71.2631 60.2496C72.7552 61.6307 74.3843 62.827 76.1426 63.7145C77.0233 64.1519 77.9299 64.5275 78.8729 64.7359C79.3376 64.8705 79.8152 64.9192 80.2875 64.9968C80.7636 65.0097 81.245 65.0721 81.7074 65.0037C82.6444 64.9717 83.5692 64.6926 84.4476 64.3085C85.3435 63.9518 86.1672 63.4111 86.9741 62.8483C88.5765 61.6915 90.0139 60.2724 91.3509 58.7399C90.3889 60.5386 89.0922 62.1775 87.5072 63.5267C85.939 64.8645 83.9806 65.9634 81.7827 66.1057C80.6967 66.1848 79.6258 66.0395 78.6044 65.7444C77.5823 65.4531 76.6103 65.0219 75.7266 64.466C73.9447 63.3807 72.4137 61.9364 71.2631 60.2496Z" fill="#000035"/>
<path d="M64.8016 76.336C67.4247 77.9027 70.2174 79.0907 73.0808 79.9394C75.9464 80.7547 78.9224 81.2163 81.8557 81.1045C84.7731 80.9829 87.6426 80.0946 90.3228 78.8009C92.9991 77.4837 95.5286 75.8029 97.8619 73.8316C95.9575 76.2356 93.5459 78.2457 90.8597 79.8124C88.1727 81.3761 85.1055 82.4134 81.9227 82.5754C78.7612 82.6713 75.6384 82.1084 72.7203 81.0323C69.8143 79.9447 67.0695 78.4047 64.8016 76.336Z" fill="#000035"/>
<path opacity="0.2" d="M103.958 52.9308C103.958 55.7052 100.993 57.9548 97.3354 57.9548C93.6781 57.9548 90.7128 55.7052 90.7128 52.9308C90.7128 50.1556 93.6781 47.9067 97.3354 47.9067C100.993 47.9067 103.958 50.1556 103.958 52.9308Z" fill="#EBA08C"/>
<path opacity="0.2" d="M71.8327 52.9308C71.8327 55.7052 68.8674 57.9548 65.21 57.9548C61.5526 57.9548 58.5873 55.7052 58.5873 52.9308C58.5873 50.1556 61.5526 47.9067 65.21 47.9067C68.8681 47.9067 71.8327 50.1556 71.8327 52.9308Z" fill="#EBA08C"/>
<path d="M48.5551 34.0309C51.442 36.7429 56.222 36.4418 58.8161 33.3844C60.4353 31.4763 61.1479 28.857 62.2773 26.5526C63.4067 24.2482 65.3377 22.0365 67.6915 22.156C69.5974 22.2525 71.2272 23.8633 73.1293 24.0246C75.6345 24.2375 77.8111 21.7742 78.4697 19.0727C79.1284 16.3713 81.1042 12.1352 80.6167 9.38894C78.2119 7.95534 72.3787 9.08471 69.7274 9.79657C59.6656 12.4987 51.6527 23.0267 48.5551 34.0309Z" fill="#000035"/>
<path d="M111.589 34.0309C108.702 36.7429 103.922 36.4418 101.328 33.3844C99.7084 31.4763 98.9958 28.857 97.8664 26.5526C96.737 24.2482 94.806 22.0365 92.4522 22.156C90.5463 22.2525 88.9165 23.8633 87.0144 24.0246C84.5092 24.2375 82.3326 21.7742 81.6739 19.0727C81.0153 16.3713 80.1286 12.1352 80.6161 9.38894C83.0209 7.95534 87.7658 9.08471 90.417 9.79657C100.478 12.4987 108.491 23.0267 111.589 34.0309Z" fill="#000035"/>
<path d="M80.3498 39.1847C81.5492 40.1133 82.5789 41.267 83.4429 42.5356C84.3038 43.808 84.9853 45.2241 85.4058 46.7314C85.6051 47.4973 85.7473 48.2502 85.8485 49.0039C85.9618 49.7584 86.0508 50.5189 86.1055 51.2825C86.1991 52.8195 86.231 54.3307 85.9724 55.9171L85.9032 56.3423L85.4811 56.3301C84.1251 56.2921 82.7691 56.2396 81.413 56.1575C80.057 56.0799 78.701 55.9825 77.345 55.8312C78.701 55.6798 80.057 55.5825 81.413 55.5049C82.7691 55.4228 84.1251 55.3711 85.4811 55.3323L84.9898 55.7452C85.1298 54.3443 85.0849 52.8279 84.9739 51.3646C84.859 49.9029 84.6765 48.3863 84.3981 46.9824C84.0665 45.5739 83.5342 44.2011 82.8428 42.8953C82.1409 41.5979 81.3203 40.3437 80.3498 39.1847Z" fill="#000035"/>
<path d="M55.8204 96.9442L80.8389 134.288L105.857 96.9442" stroke="#000035" stroke-miterlimit="10"/>
<g opacity="0.38">
<path d="M75.0931 15.4521C71.9879 14.4726 68.6324 14.614 65.6245 15.6476C62.6212 16.6796 59.8787 18.5726 58.0884 21.1873C57.1773 22.4733 56.5491 23.9503 55.9057 25.4447C55.2532 26.9262 54.5641 28.4739 53.4317 29.7219C52.3282 30.9715 50.9577 31.9731 49.4427 32.6271C47.9217 33.2607 46.2736 33.5938 44.6476 33.4942C47.8928 33.3611 50.9973 31.8043 52.9845 29.3455C55.0129 26.8935 55.5498 23.5335 57.4656 20.753C59.4072 18.0295 62.2858 16.0461 65.4466 15.0939C67.0292 14.6216 68.6803 14.3866 70.3238 14.4284C71.9628 14.4931 73.5972 14.8079 75.0931 15.4521Z" fill="white"/>
<path d="M75.4581 7.02843C74.1872 6.18044 72.6593 5.87927 71.1748 5.93707C69.6841 5.97434 68.2117 6.31277 66.8025 6.80179C63.9832 7.7707 61.3746 9.364 59.3037 11.4973C57.1711 13.5781 55.7246 16.2658 53.9898 18.7672C53.119 20.0183 52.1722 21.2344 51.0694 22.3021C49.9545 23.3479 48.6859 24.2666 47.2561 24.7921C48.6136 24.1084 49.7986 23.1524 50.804 22.0405C51.8284 20.9446 52.7015 19.7179 53.5023 18.4432C55.1162 15.9114 56.5787 13.1864 58.7637 10.9626C60.9601 8.7898 63.6706 7.12805 66.6238 6.24736C68.0962 5.8131 69.6294 5.52715 71.1755 5.56669C72.7072 5.6283 74.2861 6.03594 75.4581 7.02843Z" fill="white"/>
<path d="M83.6893 18.2596C84.624 17.0435 85.9496 16.1423 87.3946 15.5757C88.8549 15.0342 90.4459 14.8494 92.0088 15.0144C95.1665 15.3787 97.9652 17.3257 99.8072 19.8423C100.738 21.1108 101.359 22.5885 101.86 24.0267C102.37 25.4664 102.879 26.8825 103.727 28.094C105.421 30.5254 108.27 32.1545 111.316 32.388C109.784 32.4374 108.243 32.0579 106.842 31.3917C105.447 30.7049 104.211 29.685 103.254 28.4385C102.265 27.1897 101.75 25.6786 101.21 24.2655C100.687 22.8357 100.086 21.4774 99.1912 20.2864C97.4914 17.8664 94.8676 16.0503 91.9312 15.5917C89.0146 15.1445 85.8143 16.0373 83.6893 18.2596Z" fill="white"/>
<path d="M83.8536 8.55769C85.0781 7.70666 86.4858 7.12029 87.9468 6.75143C89.4192 6.4244 90.9494 6.34301 92.4613 6.50044C93.974 6.66472 95.451 7.1317 96.8169 7.81693C98.1744 8.52727 99.3958 9.47184 100.454 10.5632C102.542 12.7847 104.034 15.4412 105.313 18.129C105.946 19.4759 106.562 20.822 107.345 22.0677C108.104 23.3234 109.077 24.4687 110.335 25.2757C108.986 24.6178 107.913 23.4861 107.035 22.2738C106.168 21.041 105.484 19.7017 104.789 18.3898C103.414 15.7751 101.95 13.1764 99.9069 11.0895C98.9121 10.0308 97.7637 9.11819 96.4959 8.42839C95.2175 7.75076 93.8166 7.32333 92.3837 7.07692C89.5067 6.63809 86.4683 7.12561 83.8536 8.55769Z" fill="white"/>
<path d="M125.098 52.2123C127.087 53.5083 128.792 55.2407 130.136 57.2196C131.478 59.2115 132.318 61.5037 132.906 63.8127C133.5 66.1277 133.825 68.4861 134.313 70.7898C134.792 73.0904 135.415 75.3735 136.571 77.376C136.698 77.6361 136.863 77.8711 137.022 78.1107C137.187 78.3449 137.326 78.6004 137.513 78.8187C137.88 79.2598 138.233 79.7138 138.65 80.1108C139.482 80.9063 140.422 81.5961 141.414 82.2183C143.387 83.4754 145.562 84.4976 147.466 85.9867C149.364 87.4606 151.007 89.2486 152.319 91.2465C153.608 93.2566 154.593 95.4637 155.132 97.7749C154.427 95.5116 153.383 93.3654 152.01 91.4557C150.659 89.5338 149.003 87.8317 147.114 86.4544C145.222 85.0862 143.088 84.0603 141.046 82.8046C140.026 82.178 139.037 81.4699 138.147 80.6356C137.268 79.7868 136.518 78.8073 135.91 77.7532C134.71 75.6214 134.099 73.2607 133.636 70.9289C133.176 68.5896 132.837 66.2479 132.34 63.9488C131.826 61.6581 131.074 59.4145 129.823 57.4204C128.608 55.4096 126.986 53.6467 125.098 52.2123Z" fill="white"/>
<path d="M111.8 62.7019C114.168 63.1514 116.131 64.8542 117.471 66.8225C118.814 68.8348 119.582 71.1408 120.319 73.3912C121.755 77.9049 123.445 82.3342 125.491 86.5947C125.992 87.6519 126.551 88.6642 127.368 89.4384C128.181 90.2255 129.192 90.8172 130.221 91.3952C132.309 92.5368 134.338 93.889 136.078 95.537C137.84 97.1631 139.394 99.0111 140.69 101.017C141.972 103.033 143.005 105.203 143.717 107.471C142.843 105.263 141.751 103.148 140.38 101.225C139.039 99.2865 137.461 97.5129 135.688 95.9721C133.914 94.4221 131.977 93.1049 129.885 91.9998C128.844 91.4271 127.774 90.8233 126.866 89.9631C125.943 89.103 125.325 87.9979 124.807 86.9225C122.799 82.5966 121.086 78.1346 119.763 73.563C119.095 71.2944 118.401 69.0189 117.16 67.0232C115.951 65.0398 114.117 63.3202 111.8 62.7019Z" fill="white"/>
<path d="M103.103 73.7943C103.022 74.91 103.233 76.0089 103.651 77.0212C104.047 78.0418 104.588 79.0009 105.212 79.9097C106.422 81.7487 107.861 83.4302 109.333 85.0897C110.796 86.7567 112.318 88.3995 113.67 90.1913C115.027 91.9725 116.223 93.9156 116.966 96.0261C116.426 95.0473 115.901 94.0723 115.236 93.1832C114.619 92.266 113.927 91.4021 113.213 90.5571C111.773 88.8763 110.251 87.2617 108.763 85.5931C107.298 83.9108 105.841 82.1791 104.718 80.2169C104.142 79.2518 103.637 78.2266 103.3 77.1421C102.987 76.0561 102.85 74.8887 103.103 73.7943Z" fill="white"/>
<path d="M35.0245 51.1556C34.0731 51.4606 33.1551 51.8492 32.2881 52.3283C31.4325 52.8287 30.6218 53.3991 29.8834 54.0524C28.4018 55.3537 27.1698 56.9257 26.2548 58.662C25.3422 60.4013 24.7117 62.2669 24.4083 64.2146C24.0828 66.1593 23.971 68.1511 23.701 70.1483C23.4158 72.1348 22.9389 74.1624 21.9647 75.9717C20.9973 77.7711 19.7014 79.3887 18.159 80.6984C16.6296 82.0224 14.9519 83.1473 13.2103 84.1367C11.4549 85.1049 9.66008 85.984 7.83557 86.7963C9.58327 85.8297 11.3416 84.8851 13.0194 83.8165C14.7085 82.7708 16.3239 81.6064 17.7666 80.2649C19.2055 78.9241 20.4566 77.3863 21.3494 75.6545C22.2552 73.9258 22.6857 71.9979 22.9481 70.0433C23.2355 68.0888 23.3709 66.0886 23.7269 64.0983C24.0699 62.1095 24.7186 60.1329 25.7445 58.3821C26.7545 56.6215 28.0756 55.0442 29.6453 53.7703C30.4393 53.1436 31.2995 52.6097 32.1946 52.1526C33.0981 51.7085 34.0518 51.3815 35.0245 51.1556Z" fill="white"/>
<path d="M44.4893 60.5345C40.228 62.5134 36.7745 66.0665 34.9606 70.3217C34.051 72.4474 33.5939 74.7396 33.3376 77.0524C33.0813 79.3697 33.0053 81.7167 32.7779 84.0713C32.5246 86.4214 32.1063 88.7881 31.2203 91.0203C30.7762 92.1314 30.2263 93.2122 29.5137 94.1864C28.8102 95.1675 27.9363 96.02 26.9956 96.7547C25.0988 98.2164 22.9792 99.2675 20.982 100.479C18.9834 101.662 17.0585 103.1 15.8759 105.158C16.9049 103.01 18.8351 101.459 20.7836 100.163C22.7594 98.8789 24.8417 97.767 26.6305 96.2984C27.515 95.5569 28.3151 94.7347 28.979 93.8038C29.6452 92.8745 30.1601 91.8394 30.5761 90.7686C31.4066 88.6178 31.793 86.3081 32.0219 83.9953C32.2691 81.6764 32.3687 79.3241 32.6516 76.9741C32.9452 74.6339 33.4 72.255 34.4282 70.0875C35.4314 67.923 36.8322 65.9509 38.5488 64.3135C40.2797 62.6944 42.2913 61.3748 44.4893 60.5345Z" fill="white"/>
<path d="M54.7238 71.8236C53.8317 72.429 52.9905 73.0944 52.2711 73.8785C51.5296 74.6368 50.8915 75.4901 50.3637 76.3989C49.2738 78.2151 48.7848 80.267 48.4403 82.3835C48.2456 83.4376 48.0661 84.51 47.7832 85.5694C47.4866 86.6243 47.1276 87.6639 46.6394 88.6419C45.6978 90.6125 44.4019 92.4081 42.8124 93.8691C43.4832 93.0241 44.1273 92.167 44.662 91.2422C45.2202 90.3341 45.7077 89.3865 46.1055 88.4031C46.9375 86.4425 47.3512 84.3807 47.6927 82.2489C47.8897 81.1895 48.0943 80.1141 48.4342 79.0631C48.7841 78.015 49.251 77.002 49.8693 76.0901C50.4831 75.1775 51.1972 74.3348 52.0148 73.6101C52.8399 72.8974 53.7465 72.2807 54.7238 71.8236Z" fill="white"/>
</g>
</svg>
