<svg width="118" height="141" viewBox="0 0 118 141" fill="none" xmlns="http://www.w3.org/2000/svg">
<path d="M68.5011 84.7008C67.4561 79.0706 68.1163 74.0108 68.1163 74.0108L59.4584 74.6078L50.1837 74.0108C50.1837 74.0108 51.2796 79.282 50.2925 85.0506C56.2854 86.2994 62.5583 86.1709 68.5011 84.7008Z" fill="#EBA08C"/>
<path d="M89.3572 43.687C89.3572 61.0058 78.3432 81.6747 57.999 81.6747C37.6549 81.6747 26.6409 61.0058 26.6409 43.687C26.6409 26.3682 31.9585 6.70087 57.999 6.70087C84.0396 6.70087 89.3572 26.369 89.3572 43.687Z" fill="#EBA08C"/>
<path d="M37.5293 40.1751C38.051 38.7392 38.8876 37.4105 39.8809 36.1937C40.8946 34.9921 42.1138 33.9433 43.4774 33.0984C43.8219 32.8945 44.1672 32.6877 44.5102 32.4679L45.5841 31.8815C45.9575 31.718 46.34 31.5697 46.7287 31.4427C47.1257 31.3438 47.5303 31.2723 47.9356 31.2206C49.5647 31.0875 51.2721 31.337 52.6882 32.3165L52.6555 32.6093C51.1086 33.2596 49.8027 33.6619 48.5098 34.1106C48.1904 34.2308 47.8695 34.3296 47.5417 34.4027C47.22 34.4985 46.8907 34.5723 46.5537 34.6323L45.5468 34.862C45.2167 34.9616 44.8897 35.075 44.5612 35.1906C43.2789 35.7176 42.0408 36.4082 40.8946 37.2607C39.728 38.0965 38.7028 39.1407 37.7856 40.3173L37.5293 40.1751Z" fill="#000035"/>
<path d="M68.1871 42.6582C68.1871 44.1975 69.4352 45.4447 70.9737 45.4447C72.513 45.4447 73.7603 44.1967 73.7603 42.6582C73.7603 41.1188 72.513 39.8716 70.9737 39.8716C69.4352 39.8716 68.1871 41.1188 68.1871 42.6582Z" fill="#000035"/>
<path d="M80.1799 40.3173C79.2627 39.1415 78.2375 38.0973 77.0709 37.2607C75.9248 36.4082 74.6866 35.7168 73.4044 35.1906C73.0758 35.075 72.7488 34.9616 72.4187 34.862L71.4125 34.6323C71.0756 34.5723 70.7463 34.4985 70.4246 34.4027C70.0968 34.3289 69.7766 34.23 69.4565 34.1106C68.1628 33.6619 66.8577 33.2596 65.31 32.6093L65.2773 32.3165C66.6942 31.337 68.4008 31.0875 70.0299 31.2206C70.4353 31.2723 70.8399 31.3438 71.2369 31.4427C71.6255 31.5697 72.008 31.718 72.3815 31.8815L73.4553 32.4679C73.7983 32.6877 74.1444 32.8945 74.4881 33.0984C75.8517 33.9441 77.0709 34.9921 78.0854 36.1937C79.0787 37.4105 79.9145 38.74 80.437 40.1751L80.1799 40.3173Z" fill="#000035"/>
<path d="M49.4316 61.1732C50.9238 62.5543 52.5536 63.7506 54.3112 64.6381C55.1911 65.0754 56.0984 65.4512 57.0415 65.6595C57.5062 65.7942 57.9838 65.8428 58.4561 65.9204C58.9322 65.9333 59.4136 65.9957 59.876 65.9272C60.813 65.8953 61.7378 65.6162 62.6162 65.2321C63.5121 64.8754 64.3357 64.3347 65.1427 63.7719C66.7451 62.6151 68.1825 61.196 69.5195 59.6635C68.5575 61.4622 67.2607 63.1011 65.6758 64.4503C64.1076 65.7881 62.1492 66.887 59.9513 67.0293C58.8645 67.1084 57.7944 66.9631 56.773 66.668C55.7509 66.3767 54.7797 65.9455 53.8952 65.3896C52.114 64.3035 50.5831 62.8593 49.4316 61.1732Z" fill="#000035"/>
<path d="M42.9701 77.255C45.67 78.5182 48.4794 79.4308 51.3245 80.091C54.1735 80.7085 57.0886 81.0667 59.9672 80.9762C62.8268 80.8872 65.659 80.1594 68.3505 79.0643C71.0405 77.9509 73.6179 76.499 76.0303 74.7513C74.0165 76.9629 71.5318 78.7517 68.8243 80.1085C67.4721 80.7975 66.0362 81.3261 64.5646 81.7459C63.0861 82.1376 61.5597 82.3847 60.0197 82.4486C56.9562 82.5171 53.9278 82.0729 51.031 81.2021C48.1501 80.31 45.3658 79.0513 42.9701 77.255Z" fill="#000035"/>
<path opacity="0.2" d="M82.1269 53.8512C82.1269 56.6256 79.1616 58.8752 75.5042 58.8752C71.846 58.8752 68.8815 56.6256 68.8815 53.8512C68.8815 51.076 71.8468 48.8271 75.5042 48.8271C79.1616 48.8271 82.1269 51.0767 82.1269 53.8512Z" fill="#EBA08C"/>
<path opacity="0.2" d="M50.0021 53.8512C50.0021 56.6256 47.0368 58.8752 43.3794 58.8752C39.7213 58.8752 36.7567 56.6256 36.7567 53.8512C36.7567 51.076 39.722 48.8271 43.3794 48.8271C47.0368 48.8271 50.0021 51.0767 50.0021 53.8512Z" fill="#EBA08C"/>
<path d="M90.209 48.4543C83.8768 42.2157 80.9092 33.227 80.3327 24.3562C73.0187 28.5232 64.4757 30.502 56.0749 29.9735C47.6733 29.4449 39.9569 26.9283 33.2225 21.8776C33.2057 27.2698 33.1806 32.7319 31.8041 37.9461C30.4275 43.1603 27.5261 48.1851 22.9226 50.9938C19.5991 38.0678 22.1423 19.9603 30.1651 9.29466C30.3104 6.18333 32.6581 1.66045 35.9954 0.118091C36.1459 0.0481224 36.3292 -0.0104328 36.4707 0.0762676C36.6388 0.1797 36.6433 0.419278 36.622 0.615495C36.4646 2.08028 36.0052 3.51236 35.2812 4.79537C36.4083 3.30701 37.8442 2.05289 39.4702 1.13569C40.2026 0.722722 41.0323 0.36832 41.8621 0.503695C41.5746 1.63765 41.008 2.7001 40.2262 3.5709C48.7145 0.0694239 58.1549 -0.720008 67.1413 1.16459C73.8736 2.57613 80.5267 5.71636 84.6328 11.2355C86.2945 13.4692 87.487 16.017 88.4841 18.6157C92.3681 28.7429 92.4259 37.8366 90.209 48.4543Z" fill="#000035"/>
<path d="M97.6872 48.961C97.2659 51.1978 96.0323 53.2672 94.4626 54.8171C93.3963 55.8697 92.1498 56.7162 90.8166 57.0751C89.4841 57.4341 88.0627 57.2714 87.0048 56.4583C86.0367 55.7145 85.432 54.4848 85.1369 53.1691C84.457 50.1315 85.3765 46.6042 87.2429 43.9628C88.5388 42.1277 90.3724 40.6294 92.346 40.3815C96.3236 39.8803 98.4318 45.0048 97.6872 48.961Z" fill="#EBA08C"/>
<path d="M86.49 53.6202C87.4437 53.5654 88.3898 53.2255 89.1937 52.6482C89.437 52.4733 89.6918 52.2254 89.6804 51.9173C89.6736 51.7455 89.5831 51.5941 89.4918 51.4549C88.9495 50.6328 88.2734 49.9141 87.5015 49.3384C88.065 48.0691 88.6377 46.7838 89.4781 45.6985C90.3193 44.6132 91.473 43.731 92.7636 43.5523C94.055 43.3728 95.462 44.0322 95.9548 45.3C95.9548 45.3 97.6873 48.9604 93.6063 52.9228C89.3024 57.1027 86.49 53.6202 86.49 53.6202Z" fill="#EBA08C"/>
<path d="M95.9547 45.3019C95.4649 44.3983 94.5249 43.9086 93.6108 43.8515C92.6943 43.7854 91.8129 44.1732 91.0866 44.7413C90.3542 45.3171 89.7678 46.0685 89.275 46.8959C88.7867 47.7279 88.3631 48.6208 87.944 49.5373L87.7904 48.9516C88.2931 49.3494 88.7494 49.8004 89.1487 50.294C89.3442 50.5442 89.5259 50.8043 89.694 51.072C89.7746 51.2081 89.8606 51.329 89.9465 51.5253C90.0347 51.7124 90.0621 52.0044 89.9686 52.2212C89.7822 52.6554 89.4461 52.8273 89.186 52.9862C88.9114 53.1475 88.6156 53.2676 88.319 53.3703C87.7227 53.5688 87.0991 53.6715 86.4891 53.6213C87.0862 53.5004 87.6528 53.3057 88.1631 53.0167C88.4186 52.8737 88.6544 52.7026 88.884 52.5307C89.116 52.3588 89.3099 52.1573 89.332 52.0097C89.3396 51.939 89.3312 51.9101 89.2879 51.8249C89.2453 51.7466 89.1495 51.6241 89.0628 51.5093C88.8856 51.2811 88.6977 51.0621 88.4992 50.8545C88.1091 50.4339 87.6779 50.0536 87.2116 49.7289L86.8998 49.5114L87.058 49.1433C87.4565 48.2192 87.8535 47.2655 88.4095 46.3719C88.9533 45.4775 89.656 44.6257 90.561 44.0166C91.447 43.4097 92.597 43.0256 93.6967 43.272C94.766 43.4933 95.7189 44.2949 95.9547 45.3019Z" fill="#000035"/>
<path d="M17.4468 48.961C17.8681 51.1978 19.1017 53.2672 20.6714 54.8171C21.7377 55.8697 22.9842 56.7162 24.3174 57.0751C25.6499 57.4341 27.0713 57.2714 28.13 56.4583C29.0981 55.7145 29.7027 54.4848 29.9978 53.1691C30.6777 50.1315 29.7583 46.6042 27.8919 43.9628C26.596 42.1277 24.7623 40.6294 22.7888 40.3815C18.8112 39.8803 16.7022 45.0048 17.4468 48.961Z" fill="#EBA08C"/>
<path d="M28.6449 53.6202C27.6912 53.5654 26.7451 53.2255 25.9412 52.6482C25.6979 52.4733 25.4431 52.2254 25.4545 51.9173C25.4613 51.7455 25.5518 51.5941 25.6431 51.4549C26.1854 50.6328 26.8615 49.9141 27.6334 49.3384C27.0698 48.0691 26.4972 46.7838 25.6568 45.6985C24.8156 44.6132 23.6619 43.731 22.3713 43.5523C21.0799 43.3728 19.6729 44.0322 19.1801 45.3C19.1801 45.3 17.4476 48.9604 21.5286 52.9228C25.8325 57.1027 28.6449 53.6202 28.6449 53.6202Z" fill="#EBA08C"/>
<path d="M19.1793 45.3019C19.4151 44.295 20.368 43.4934 21.4373 43.2721C22.5363 43.0257 23.687 43.409 24.573 44.0166C25.4788 44.6258 26.1808 45.4776 26.7253 46.372C27.2812 47.2656 27.6782 48.2193 28.0768 49.1434L28.235 49.5115L27.9231 49.729C27.4569 50.0537 27.0257 50.434 26.6356 50.8546C26.4371 51.0622 26.2492 51.2812 26.072 51.5094C25.9853 51.6242 25.8887 51.7474 25.8469 51.825C25.8035 51.9102 25.7952 51.9391 25.8028 52.0098C25.8248 52.1581 26.018 52.3596 26.2507 52.5308C26.4804 52.7026 26.7162 52.8738 26.9717 53.0167C27.482 53.3057 28.0479 53.4997 28.6456 53.6214C28.0357 53.6716 27.4121 53.5689 26.8158 53.3704C26.5192 53.2677 26.2233 53.1468 25.9488 52.9863C25.6887 52.8274 25.3525 52.6555 25.167 52.2212C25.0734 52.0045 25.1008 51.7124 25.189 51.5253C25.2742 51.3284 25.3609 51.2082 25.4408 51.0721C25.6088 50.8044 25.7906 50.5443 25.9861 50.2941C26.3861 49.8005 26.8424 49.3502 27.3444 48.9517L27.1907 49.5373C26.7717 48.6217 26.3481 47.728 25.8598 46.896C25.367 46.0685 24.7806 45.3179 24.0482 44.7414C23.3219 44.1733 22.4405 43.7854 21.524 43.8516C20.6091 43.9079 19.6699 44.3977 19.1793 45.3019Z" fill="#000035"/>
<path d="M42.6758 94.4746C41.4286 95.0861 40.0543 95.6808 38.604 96.2664C30.0952 99.7025 18.8424 102.799 13.5551 106.765C4.94366 113.223 0.945557 140.595 0.945557 140.595H53.5149C51.6182 124.612 48.8764 108.73 45.2944 93.0387C44.5034 93.5277 43.6311 94.0069 42.6758 94.4746Z" fill="#000035"/>
<path d="M60.8191 102.941C61.1134 102.933 61.3317 102.676 61.5089 102.441C64.5685 98.3777 67.4091 94.1492 70.0253 89.7875C69.8884 89.5548 69.7728 89.319 69.6846 89.0795C69.1499 87.6322 68.7704 86.1477 68.5012 84.6996C62.5584 86.1697 56.2855 86.2982 50.2926 85.0502C50.0636 86.3865 49.7237 87.7493 49.2316 89.0802C49.1008 89.4339 48.897 89.7784 48.662 90.1184C52.4821 94.2526 56.3023 98.3869 60.1224 102.522C60.3125 102.727 60.5392 102.949 60.8191 102.941Z" fill="#EBA08C"/>
<path d="M105.36 106.765C99.7963 102.592 87.6232 99.38 78.9973 95.7226C77.8048 95.2169 76.6838 94.7027 75.6548 94.1765C75.5749 94.1354 75.5027 94.0943 75.4243 94.0532C71.4886 109.335 68.6701 124.903 67.0045 140.595H117.971C117.971 140.595 113.972 113.223 105.36 106.765Z" fill="#000035"/>
<path d="M70.0246 89.7871C67.4084 94.1495 64.5678 98.3773 61.5082 102.441C61.331 102.676 61.1127 102.932 60.8184 102.941C60.5385 102.948 60.3119 102.726 60.1218 102.521C56.3016 98.3865 52.4815 94.2522 48.6613 90.1172C47.9495 91.1447 46.7881 92.1128 45.2937 93.0369C48.8758 108.728 51.6175 124.611 53.5143 140.594H59.2259H59.6875H67.0023C68.6671 124.901 71.4864 109.334 75.4221 94.0515C72.8797 92.7281 70.9327 91.3272 70.0246 89.7871Z" fill="white"/>
<path d="M69.6785 89.5799C70.8512 90.5145 71.9448 91.4401 73.1176 92.2835C74.2774 93.1445 75.4912 93.9065 76.7362 94.7423C75.2562 94.464 73.8842 93.7742 72.6689 92.8973C71.4657 92.0029 70.3926 90.9047 69.6785 89.5799Z" fill="#000035"/>
<path d="M44.7932 93.4492C45.7325 92.4415 46.7797 91.6224 47.7197 90.7159C48.6765 89.8207 49.5161 88.8693 50.2439 87.7057C50.1724 88.394 49.9108 89.0587 49.5534 89.6557C49.199 90.2588 48.7381 90.7896 48.2415 91.268C47.2269 92.208 46.0671 92.9381 44.7932 93.4492Z" fill="#000035"/>
<path d="M54.4419 107.296L58.4301 113.485L53.0669 136.588L53.5156 140.596H67.0036L67.5063 136.863L62.9682 113.898L67.0941 107.571L60.819 102.942L54.4419 107.296Z" fill="#F0C02A"/>
<path d="M47.7037 111.697C47.979 111.284 60.8191 102.942 60.8191 102.942L74.2447 113.072" stroke="#000035" stroke-miterlimit="10"/>
<path d="M31.8057 98.2081L46.8261 140.418" stroke="white" stroke-miterlimit="10"/>
<path d="M87.7046 98.2081L72.6841 140.418" stroke="white" stroke-miterlimit="10"/>
<g opacity="0.28">
<path d="M30.3044 9.76357C33.2568 13.9549 37.2945 17.2928 41.8326 19.5516C46.3722 21.8119 51.416 23.066 56.4788 23.0729C61.5288 23.1322 66.6471 21.9876 70.9966 19.3881C73.1664 18.0959 75.1156 16.4182 76.7067 14.4424C78.3175 12.4817 79.5427 10.194 80.2606 7.73524C79.7092 10.2412 78.5388 12.6011 77.001 14.672C75.4404 16.7316 73.4934 18.4983 71.3031 19.887C66.8966 22.6637 61.633 23.8357 56.475 23.8334C51.2974 23.7642 46.1364 22.4865 41.5671 20.0703C39.2863 18.8595 37.1469 17.3841 35.2327 15.6592C33.3352 13.9176 31.6437 11.9486 30.3044 9.76357Z" fill="white"/>
<path d="M37.9591 6.72008C39.1105 7.5483 40.3183 8.28601 41.5982 8.86782C42.8645 9.47396 44.1924 9.94246 45.5515 10.2634C48.2658 10.919 51.098 11.0407 53.8344 10.5448C56.5738 10.071 59.2038 9.00625 61.5492 7.49583C62.7197 6.73682 63.8156 5.85003 64.7997 4.85526C65.7861 3.87418 66.6235 2.69459 66.9391 1.3013C66.7961 2.73186 65.993 4.02022 65.0743 5.10701C64.1206 6.17936 63.0437 7.13609 61.8785 7.97875C59.5391 9.65268 56.8088 10.7851 53.9667 11.2931C51.1208 11.7905 48.1624 11.6384 45.4024 10.8262C42.6371 10.0421 40.0597 8.63053 37.9591 6.72008Z" fill="white"/>
<path d="M87.059 16.8349C86.5699 18.8982 86.0961 20.9577 85.817 23.037C85.547 25.1148 85.4291 27.21 85.6459 29.2764C85.8452 31.3382 86.4003 33.365 87.2879 35.2405C88.183 37.1106 89.4714 38.8112 91.1324 40.1322C90.2076 39.6074 89.3839 38.907 88.6416 38.1312C87.9168 37.338 87.2932 36.4505 86.7677 35.5082C85.7174 33.6182 85.1135 31.4979 84.8892 29.3509C84.6838 27.2024 84.8283 25.0364 85.2421 22.9412C85.6474 20.8444 86.2711 18.8039 87.059 16.8349Z" fill="white"/>
<path d="M26.4667 16.2021C27.0455 17.0745 27.5018 18.0266 27.8942 19.0054C28.2646 19.9934 28.5407 21.0178 28.7293 22.0613C29.1058 24.1497 29.0563 26.3179 28.6137 28.4041C28.1551 30.4864 27.3033 32.4813 26.0971 34.2274C25.494 35.0998 24.8179 35.9181 24.0733 36.6642C23.3105 37.3928 22.5021 38.0712 21.6138 38.6256C22.3979 37.9343 23.144 37.2102 23.8003 36.4102C24.4741 35.6283 25.0803 34.7918 25.6058 33.9103C26.6568 32.1497 27.4478 30.2377 27.8714 28.2428C28.3118 26.251 28.3817 24.1831 28.1536 22.1457C27.9155 20.1074 27.3352 18.1027 26.4667 16.2021Z" fill="white"/>
</g>
<path d="M59.6768 40.3102C59.9871 42.442 60.3742 44.5388 60.9012 46.5869C61.0336 47.0888 61.1948 47.5459 61.4496 47.8805C61.7051 48.2175 62.1105 48.4897 62.5592 48.7992C63.5098 49.432 64.3046 50.3987 64.7685 51.4695C65.2233 52.5502 65.3792 53.7762 65.1541 54.9337C64.9229 56.0821 64.3845 57.1666 63.5699 57.9941C62.7638 58.8382 61.7104 59.3767 60.6366 59.6558C59.5543 59.9205 58.4439 59.96 57.3777 59.798C59.5041 59.6429 61.6427 58.9447 62.9083 57.3986C64.17 55.8699 64.5282 53.6902 63.7213 51.9182C63.3425 51.0177 62.7379 50.2549 61.9234 49.6678C61.5127 49.3468 61.0153 49.0023 60.6404 48.4616C60.2669 47.9178 60.1331 47.317 60.0365 46.7778C59.6593 44.6361 59.5148 42.4618 59.6768 40.3102Z" fill="#000035"/>
<path d="M45.3712 42.6579C45.3712 44.1972 46.6192 45.4445 48.1578 45.4445C49.6971 45.4445 50.9444 44.1965 50.9444 42.6579C50.9444 41.1186 49.6971 39.8713 48.1578 39.8713C46.6192 39.8713 45.3712 41.1186 45.3712 42.6579Z" fill="#000035"/>
</svg>
