<svg width="118" height="139" viewBox="0 0 118 139" fill="none" xmlns="http://www.w3.org/2000/svg">
<path d="M105.576 107.312C105.426 106.831 100.953 68.2885 97.4138 37.6612C94.9732 16.539 78.0956 0.751174 58.2039 0.977812C38.1867 1.20597 21.5653 17.5756 19.6998 38.9001L13.5288 109.441L105.576 107.312Z" fill="#000035"/>
<path d="M105.192 104.504C99.6269 100.331 87.4546 97.12 78.8279 93.4619C78.6986 93.4071 78.5792 93.3508 78.4514 93.2953C77.4027 92.8428 76.4033 92.3849 75.4854 91.9157C75.077 91.7073 74.6868 91.4959 74.3096 91.2837C71.869 89.9071 70.1145 88.4408 69.5152 86.8201C69.4528 86.6513 69.395 86.4825 69.3365 86.3129C62.7678 87.7526 55.8629 87.6461 49.3421 86.0049C49.2539 86.2779 49.1627 86.5494 49.063 86.8201C48.39 88.6409 46.2612 90.2661 43.3385 91.7887C43.0655 91.9309 42.794 92.0739 42.5073 92.2146C41.6981 92.6116 40.8303 93.001 39.9283 93.3858C39.44 93.5942 38.9449 93.8011 38.4361 94.0064C29.9273 97.4425 18.6745 100.539 13.3873 104.505C4.77583 110.963 0.77771 138.335 0.77771 138.335H38.8666H44.5957H59.0579H59.5196H80.898H89.7073H117.8C117.801 138.335 113.803 110.962 105.192 104.504Z" fill="#F0C02A"/>
<path d="M69.3365 86.312C66.9522 79.3691 67.947 71.7494 67.947 71.7494L59.2891 72.3464L50.0145 71.7494C50.0145 71.7494 51.55 79.1455 49.3422 86.004C55.8637 87.646 62.7685 87.7517 69.3365 86.312Z" fill="#EBA08C"/>
<path d="M89.1887 41.4258C89.1887 58.7446 78.1747 79.4135 57.8305 79.4135C37.4863 79.4135 26.4723 58.7446 26.4723 41.4258C26.4723 24.107 40.5117 10.0676 57.8305 10.0676C75.1493 10.0684 89.1887 24.1077 89.1887 41.4258Z" fill="#EBA08C"/>
<path d="M29.9653 43.2274C31.5548 40.9869 32.3747 38.2862 32.8576 35.5818C33.3915 32.5906 33.5018 29.3447 32.0332 26.6851C31.5807 25.866 30.9624 25.1047 30.1288 24.6781C28.6557 23.9251 26.7756 24.4005 25.517 25.4743C24.2583 26.5482 23.5229 28.1111 23.0057 29.6831C21.4907 34.2904 21.5926 39.2582 22.452 43.9834C22.8619 46.2383 22.7768 47.9381 25.3884 46.9319C27.2381 46.2178 28.8268 44.8321 29.9653 43.2274Z" fill="#000035"/>
<path d="M87.0082 43.2274C85.4187 40.9869 84.5989 38.2862 84.1159 35.5818C83.582 32.5906 83.4718 29.3447 84.9403 26.6851C85.3929 25.866 86.0112 25.1047 86.8447 24.6781C88.3178 23.9251 90.1979 24.4005 91.4566 25.4743C92.7153 26.5482 93.4507 28.1111 93.9678 29.6831C95.4828 34.2904 95.3809 39.2582 94.5215 43.9834C94.1116 46.2383 94.1967 47.9381 91.5851 46.9319C89.7347 46.2178 88.1467 44.8321 87.0082 43.2274Z" fill="#000035"/>
<path d="M97.5187 46.6994C97.0973 48.9361 95.863 51.0055 94.294 52.5555C93.2278 53.608 91.9812 54.4545 90.648 54.8135C89.3156 55.1725 87.8942 55.0097 86.8363 54.1967C85.8681 53.4529 85.2635 52.2231 84.9684 50.9074C84.2885 47.8698 85.2087 44.3433 87.0743 41.7012C88.3702 39.866 90.2039 38.3678 92.1775 38.1198C96.155 37.6186 98.2632 42.7431 97.5187 46.6994Z" fill="#EBA08C"/>
<path d="M86.3207 51.3578C87.2744 51.303 88.2205 50.9631 89.0244 50.3858C89.2678 50.2109 89.5225 49.9637 89.5111 49.6549C89.5043 49.4831 89.4138 49.3317 89.3217 49.1925C88.7795 48.3704 88.1034 47.6517 87.3314 47.076C87.895 45.8067 88.4677 44.5214 89.308 43.4368C90.1492 42.3516 91.3029 41.4701 92.5935 41.2906C93.8849 41.1111 95.2919 41.7705 95.7847 43.0383C95.7847 43.0383 97.5172 46.6988 93.4362 50.6611C89.1339 54.8402 86.3207 51.3578 86.3207 51.3578Z" fill="#EBA08C"/>
<path d="M95.7861 43.04C95.2963 42.1365 94.3563 41.6467 93.4422 41.5897C92.5257 41.5235 91.6443 41.9114 90.918 42.4795C90.1856 43.0552 89.6 43.8066 89.1064 44.6333C88.6181 45.4653 88.1945 46.3582 87.7754 47.2746L87.6218 46.689C88.1238 47.0868 88.5801 47.5378 88.9801 48.0313C89.1756 48.2816 89.3574 48.5417 89.5254 48.8094C89.6061 48.9455 89.692 49.0657 89.7779 49.2626C89.8662 49.4497 89.8935 49.7418 89.8 49.9585C89.6137 50.3928 89.2775 50.5647 89.0174 50.7236C88.7429 50.8849 88.447 51.005 88.1504 51.1085C87.5549 51.3069 86.9305 51.4096 86.3206 51.3594C86.9176 51.2385 87.4842 51.0438 87.9945 50.7548C88.25 50.6118 88.4858 50.4407 88.7155 50.2688C88.9482 50.0969 89.1414 49.8954 89.1634 49.7479C89.171 49.6771 89.1627 49.6482 89.1193 49.5631C89.0775 49.4855 88.9809 49.3623 88.8942 49.2474C88.717 49.0193 88.5291 48.8002 88.3306 48.5926C87.9405 48.172 87.5093 47.7918 87.0431 47.467L86.7312 47.2495L86.8902 46.8814C87.2887 45.9574 87.6857 45.0037 88.2417 44.11C88.7854 43.2157 89.4882 42.3639 90.3932 41.7547C91.2792 41.147 92.4291 40.7637 93.5289 41.0101C94.5974 41.2314 95.5504 42.0323 95.7861 43.04Z" fill="#000035"/>
<path d="M17.2781 46.6994C17.6995 48.9361 18.9338 51.0055 20.5028 52.5555C21.569 53.608 22.8156 54.4545 24.1488 54.8135C25.4812 55.1725 26.9026 55.0097 27.9613 54.1967C28.9295 53.4529 29.5341 52.2231 29.8292 50.9074C30.5091 47.8698 29.5896 44.3433 27.7232 41.7012C26.4273 39.866 24.5937 38.3678 22.6201 38.1198C18.6418 37.6186 16.5336 42.7431 17.2781 46.6994Z" fill="#EBA08C"/>
<path d="M28.4755 51.3578C27.5218 51.303 26.5757 50.9631 25.7718 50.3858C25.5284 50.2109 25.2736 49.9637 25.285 49.6549C25.2919 49.4831 25.3824 49.3317 25.4737 49.1925C26.0159 48.3704 26.692 47.6517 27.464 47.076C26.9004 45.8067 26.3278 44.5214 25.4874 43.4368C24.6462 42.3516 23.4925 41.4701 22.2019 41.2906C20.9105 41.1111 19.5035 41.7705 19.0107 43.0383C19.0107 43.0383 17.2782 46.6988 21.3592 50.6611C25.663 54.8402 28.4755 51.3578 28.4755 51.3578Z" fill="#EBA08C"/>
<path d="M19.0107 43.04C19.2457 42.033 20.1994 41.2314 21.2688 41.0101C22.3677 40.7637 23.5184 41.147 24.4044 41.7547C25.3102 42.3631 26.0122 43.2157 26.556 44.11C27.1119 45.0037 27.5089 45.9574 27.9074 46.8814L28.0664 47.2495L27.7546 47.467C27.2884 47.7918 26.8571 48.172 26.467 48.5926C26.2685 48.8002 26.0806 49.0193 25.9034 49.2474C25.8167 49.3623 25.7201 49.4855 25.6783 49.5631C25.635 49.6475 25.6266 49.6771 25.6342 49.7479C25.6563 49.8962 25.8494 50.0977 26.0822 50.2688C26.3118 50.4407 26.5476 50.6118 26.8031 50.7548C27.3135 51.0438 27.8793 51.2377 28.4771 51.3594C27.8671 51.4096 27.2435 51.3069 26.6472 51.1085C26.3506 51.0058 26.0548 50.8849 25.7802 50.7236C25.5201 50.5647 25.184 50.3928 24.9976 49.9585C24.9041 49.7418 24.9322 49.4497 25.0197 49.2626C25.1049 49.0657 25.1916 48.9455 25.2722 48.8094C25.4403 48.5417 25.622 48.2816 25.8175 48.0313C26.2175 47.5378 26.6738 47.0875 27.1758 46.689L27.0222 47.2746C26.6031 46.3589 26.1795 45.4653 25.6912 44.6341C25.1977 43.8066 24.6121 43.056 23.8797 42.4795C23.1534 41.9114 22.2719 41.5235 21.3555 41.5897C20.4405 41.6467 19.5013 42.1357 19.0107 43.04Z" fill="#000035"/>
<path d="M37.423 39.4686C38.0405 38.0959 38.922 36.8357 39.9578 35.7109C41.0127 34.6028 42.2333 33.643 43.5719 32.8634C44.9066 32.0961 46.3417 31.3758 47.9076 31.1789C49.4561 30.9728 51.0654 31.0618 52.5134 31.6466L52.4967 31.7979C50.9809 32.0535 49.5785 32.2953 48.2042 32.671C46.8459 33.0543 45.4443 33.3403 44.1324 33.9442C42.8243 34.5366 41.5884 35.3154 40.4826 36.2623C39.3577 37.1909 38.3782 38.3035 37.5568 39.5424L37.423 39.4686Z" fill="#000035"/>
<path d="M80.0737 39.5424C79.2523 38.3035 78.2727 37.1909 77.1479 36.2623C76.0421 35.3154 74.8062 34.5366 73.4981 33.9442C72.1862 33.3403 70.7845 33.0543 69.4262 32.671C68.052 32.2953 66.6488 32.0535 65.1338 31.7979L65.1171 31.6466C66.5651 31.0618 68.1744 30.9728 69.7228 31.1789C71.2888 31.3766 72.7239 32.0961 74.0586 32.8634C75.3964 33.643 76.6178 34.6028 77.6719 35.7109C78.707 36.8357 79.5892 38.0959 80.2067 39.4686L80.0737 39.5424Z" fill="#000035"/>
<path d="M50.0237 60.4324C51.5158 61.8135 53.1449 63.0098 54.9032 63.8974C55.7839 64.3347 56.6905 64.7096 57.6335 64.9188C58.0982 65.0534 58.5758 65.1021 59.0481 65.1796C59.5242 65.1926 60.0056 65.2549 60.468 65.1873C61.405 65.1553 62.3298 64.8762 63.2082 64.4921C64.1041 64.1354 64.9278 63.5939 65.7347 63.0319C67.3371 61.8751 68.7746 60.456 70.1116 58.9235C69.1495 60.7222 67.8528 62.3611 66.2678 63.7103C64.6996 65.0481 62.7413 66.147 60.5433 66.2893C59.4573 66.3684 58.3865 66.2231 57.3651 65.928C56.3429 65.6367 55.371 65.2055 54.4872 64.6496C52.7053 63.5628 51.1744 62.1185 50.0237 60.4324Z" fill="#000035"/>
<path d="M42.8016 74.993C45.4247 76.5605 48.2174 77.7477 51.0808 78.5964C53.9464 79.4117 56.9224 79.8734 59.8558 79.7616C62.7731 79.6399 65.6426 78.7516 68.3228 77.4579C70.9991 76.1407 73.5286 74.4599 75.8619 72.4886C73.9575 74.8927 71.5459 76.9027 68.8597 78.4694C66.1727 80.0331 63.1055 81.0704 59.9227 81.2324C56.7612 81.3283 53.6384 80.7655 50.7203 79.6893C47.8143 78.6017 45.0695 77.0624 42.8016 74.993Z" fill="#000035"/>
<path opacity="0.2" d="M75.3349 58.1348C78.9925 58.1348 81.9575 55.8855 81.9575 53.1108C81.9575 50.3361 78.9925 48.0867 75.3349 48.0867C71.6772 48.0867 68.7122 50.3361 68.7122 53.1108C68.7122 55.8855 71.6772 58.1348 75.3349 58.1348Z" fill="#EBA08C"/>
<path opacity="0.2" d="M43.21 58.1348C46.8676 58.1348 49.8327 55.8855 49.8327 53.1108C49.8327 50.3361 46.8676 48.0867 43.21 48.0867C39.5524 48.0867 36.5873 50.3361 36.5873 53.1108C36.5873 55.8855 39.5524 58.1348 43.21 58.1348Z" fill="#EBA08C"/>
<path d="M58.6152 40.1216C58.8988 41.6305 59.3475 43.0953 59.7263 44.5791L60.8884 49.0229C61.6489 51.9889 62.3798 54.9641 63.0544 57.9507L63.1768 58.493L62.6475 58.515C61.782 58.5508 60.915 58.5607 60.0465 58.5515C59.1779 58.5417 58.3071 58.5097 57.4348 58.442C58.2881 58.2473 59.1452 58.0891 60.0031 57.9522C60.861 57.8169 61.7204 57.7005 62.5821 57.6092L62.1752 58.1728C61.76 56.6943 61.3896 55.2067 61.0146 53.7199C60.6633 52.227 60.299 50.7371 59.9902 49.2335C59.667 47.7338 59.3742 46.2264 59.1224 44.7091C58.9901 43.9524 58.8806 43.1904 58.7901 42.4253C58.7011 41.6617 58.5961 40.8936 58.6152 40.1216Z" fill="#000035"/>
<path d="M27.7507 22.804C29.9562 26.0408 32.9481 29.1673 36.8276 29.7058C37.6368 29.8183 38.6719 29.6723 38.9267 28.8958C39.0332 28.5718 38.9647 28.2197 38.8924 27.8866C38.3342 25.332 37.5364 22.8306 36.5135 20.4235C37.919 22.4321 40.1625 23.6687 42.3749 24.7243C45.6886 26.3047 49.1193 27.6387 52.6307 28.7125C55.396 29.5582 58.2715 30.248 61.1539 30.0146C61.862 29.9575 62.7617 29.6229 62.7221 28.9133C62.7062 28.6258 62.5244 28.3771 62.3495 28.1482C61.1456 26.5686 59.9424 24.9882 58.7385 23.4086C60.7585 25.0665 63.3222 25.8826 65.8259 26.6287C73.3353 28.8662 81.381 30.8055 88.9148 28.6502C85.2605 18.9047 77.9373 9.86659 68.3569 5.80003C64.6919 4.24475 60.7486 3.25758 56.7672 3.26899C52.4588 3.28192 48.2371 4.45389 44.1721 5.88217C40.4515 7.18952 36.7599 8.74709 33.6433 11.1633C29.2102 14.6009 26.1657 19.6653 24.7329 25.0886" fill="#000035"/>
<path d="M42.6381 43.8636C42.3863 42.6809 42.8624 41.3553 43.7302 40.4153C44.5896 39.4639 45.8817 38.8098 47.2659 38.8357C48.6501 38.8532 49.9209 39.5514 50.7484 40.5302C51.585 41.4983 52.0169 42.8407 51.7241 44.0142C51.369 42.8787 50.7081 42.0132 49.9141 41.3744C49.1163 40.7416 48.1664 40.3735 47.2408 40.356C46.3152 40.3408 45.3532 40.6777 44.5333 41.2838C43.718 41.8961 43.029 42.7403 42.6381 43.8636Z" fill="#000035"/>
<path d="M67.2504 43.8636C66.9986 42.6809 67.4747 41.3553 68.3425 40.4153C69.2019 39.4639 70.494 38.8098 71.8782 38.8357C73.2624 38.8532 74.5332 39.5514 75.3607 40.5302C76.1973 41.4983 76.6292 42.8407 76.3357 44.0142C75.9805 42.8787 75.3196 42.0132 74.5256 41.3744C73.727 40.7416 72.7772 40.3735 71.8523 40.356C70.9268 40.3408 69.9647 40.6777 69.1449 41.2838C68.3303 41.8961 67.6413 42.7403 67.2504 43.8636Z" fill="#000035"/>
<g opacity="0.38">
<path d="M39.9282 11.9166C41.7877 14.44 44.0648 16.6395 46.6506 18.375C49.2196 20.1295 52.0899 21.4369 55.0947 22.1898L54.7624 22.6537C53.4467 20.7212 52.1218 18.7956 50.7422 16.9087C49.3664 15.0195 47.9526 13.1578 46.5015 11.3264L47.0688 10.8495C49.1535 13.1357 51.5324 15.1587 54.1578 16.8083C56.777 18.467 59.6244 19.7592 62.5814 20.7022C65.5376 21.6506 68.6208 22.2202 71.7306 22.3754C74.8404 22.5541 77.9776 22.2978 81.0379 21.6339C78.0186 22.4727 74.8617 22.8218 71.7161 22.7648C68.569 22.6834 65.4296 22.1807 62.4011 21.2886C59.3742 20.3896 56.472 19.0709 53.7836 17.4076C51.1027 15.736 48.6165 13.7205 46.5175 11.3462L47.0848 10.8693C48.5275 12.7205 49.933 14.6005 51.2997 16.5079C52.6625 18.4183 54.0026 20.3448 55.2727 22.3176L55.7077 22.9929L54.9403 22.7807C51.8822 21.9366 48.9922 20.5341 46.4285 18.6937C43.8792 16.8334 41.6417 14.545 39.9282 11.9166Z" fill="white"/>
<path d="M53.2786 5.80569C55.0787 7.52677 57.0645 9.02502 59.2046 10.2426C61.3485 11.4511 63.6233 12.42 65.987 13.0832C68.3462 13.7631 70.7898 14.1388 73.2486 14.24L75.0966 14.2537L76.9447 14.1403L78.7898 13.9266C79.3967 13.8072 80.0082 13.697 80.6242 13.5928C80.0302 13.7768 79.4317 13.9548 78.8293 14.1244L76.9919 14.5107L75.124 14.7343L73.2417 14.8263C70.7251 14.8628 68.2047 14.4978 65.7794 13.8156C63.3586 13.1167 61.0245 12.0991 58.905 10.7423L57.3535 9.67299L55.8834 8.49949L54.5243 7.20355C54.1015 6.74114 53.687 6.27418 53.2786 5.80569Z" fill="white"/>
<path d="M92.6885 56.7146C93.1311 60.3195 93.5205 63.9267 93.9266 67.5316L95.1412 78.3448L96.3588 89.158L96.9725 94.5654L97.5513 99.9804C97.2053 98.1969 96.914 96.4059 96.6029 94.6164L95.7777 89.2326C95.253 85.6398 94.8202 82.0341 94.3852 78.4292C94.011 74.8175 93.6292 71.2065 93.3456 67.5863C93.0611 63.9677 92.8185 60.3446 92.6885 56.7146Z" fill="white"/>
<path d="M84.6451 68.0096C84.9281 69.9893 85.1281 71.975 85.3152 73.9608C85.5106 75.9465 85.6475 77.9361 85.7837 79.9249C85.9015 81.9152 86.0179 83.9062 86.0757 85.9003L86.1594 88.8923C86.1594 89.8916 86.186 90.8887 86.1632 91.8888C86.0141 90.8993 85.9137 89.9068 85.7875 88.9159L85.4916 85.9376C85.2962 83.9519 85.16 81.9623 85.0247 79.9735C84.9075 77.9832 84.7912 75.9922 84.7341 73.9981C84.6687 72.0047 84.6155 70.0098 84.6451 68.0096Z" fill="white"/>
<path d="M78.2901 75.6833C78.6255 77.815 78.7837 79.9384 78.9381 82.0656C79.0697 84.1936 79.1952 86.3193 79.1434 88.4769C78.5974 86.3877 78.3335 84.2537 78.1799 82.1158C78.0498 79.9764 78.0277 77.8264 78.2901 75.6833Z" fill="white"/>
<path d="M41.1891 78.882C41.4888 80.41 41.5564 81.9379 41.5694 83.4665C41.5587 84.9944 41.491 86.5223 41.1891 88.051C40.8879 86.5231 40.8202 84.9944 40.8088 83.4665C40.8218 81.9386 40.8895 80.4107 41.1891 78.882Z" fill="white"/>
<path d="M29.6899 65.4488C29.7842 68.1023 29.7797 70.7558 29.7477 73.4077C29.7241 76.0605 29.6268 78.7109 29.5135 81.3606C29.3827 84.0095 29.2351 86.6577 29.0138 89.3013L28.6685 93.2652C28.521 94.5839 28.397 95.9042 28.2206 97.2207C28.2251 95.8928 28.2753 94.568 28.2966 93.2416L28.4305 89.2678C28.5141 86.6189 28.6412 83.9723 28.7552 81.3256L29.1667 73.3872C29.3195 70.7413 29.4709 68.0947 29.6899 65.4488Z" fill="white"/>
<path d="M22.8444 62.0368C22.8391 65.0303 22.7509 68.0191 22.6497 71.008C22.5509 73.9961 22.3828 76.9812 22.2527 79.9678C22.0611 82.9514 21.9021 85.9365 21.6801 88.9185L21.3317 93.3904C21.188 94.8795 21.0701 96.3702 20.9028 97.8578C20.8975 96.3603 20.9416 94.8658 20.9591 93.3699L21.096 88.8866C21.1971 85.8984 21.3622 82.9134 21.4937 79.9268C21.6869 76.9432 21.8436 73.9581 22.0679 70.9768C22.2908 67.9948 22.5258 65.0135 22.8444 62.0368Z" fill="white"/>
</g>
<path d="M48.4159 88.4597C55.5717 90.2751 63.2181 90.1161 70.2918 88.0041" stroke="#000035" stroke-miterlimit="10"/>
<path d="M24.237 106.395C22.9936 108.857 22.0543 111.45 21.4649 114.116C20.8846 116.782 20.6078 119.511 20.6838 122.233C20.7432 124.955 21.1539 127.667 21.865 130.301L22.4665 132.26L23.202 134.175L24.0454 136.052C24.3747 136.654 24.6956 137.262 25.0135 137.876C24.6264 137.306 24.2439 136.731 23.8689 136.149L22.8628 134.33L22.0163 132.428L21.3044 130.468C20.4443 127.82 20.0009 125.038 19.9241 122.251C19.8648 119.464 20.1697 116.664 20.8991 113.976L21.5136 111.984L22.265 110.042L23.1792 108.176C23.5252 107.577 23.8788 106.983 24.237 106.395Z" fill="#000035"/>
<path d="M96.1711 106.395C96.5293 106.983 96.883 107.577 97.229 108.177L98.1432 110.043L98.8946 111.985L99.5091 113.977C100.238 116.665 100.543 119.464 100.484 122.252C100.407 125.038 99.9639 127.82 99.1037 130.469L98.3919 132.428L97.5454 134.33L96.54 136.15C96.1643 136.731 95.7817 137.307 95.3954 137.877C95.7133 137.262 96.0342 136.655 96.3635 136.053L97.207 134.176L97.9424 132.26L98.544 130.302C99.2558 127.667 99.6665 124.956 99.7251 122.233C99.8011 119.512 99.5243 116.783 98.944 114.116C98.3546 111.45 97.4146 108.857 96.1711 106.395Z" fill="#000035"/>
</svg>
